<svg width="294" height="509" viewBox="0 0 294 509" fill="none" xmlns="http://www.w3.org/2000/svg">
<path d="M61.3765 390.987C6.31067 299.736 151.84 201.701 231.488 164.09C331.56 216.715 518.782 323.386 467.09 329.068C402.476 336.17 391.986 454.824 390.175 469.755C388.363 484.687 308.078 555.483 246.835 453.779C185.591 352.075 130.209 505.051 61.3765 390.987Z" fill="#81F281"/>
<g clip-path="url(#clip0_69_3)">
<path d="M276.704 216.808L165.214 105.318L80.8149 189.718L128.342 237.245L154.549 211.038L218.512 275.001L276.704 216.808Z" fill="#EDD8BE"/>
<path d="M9.84985 187.309C9.84985 187.309 14.9158 192.064 22.9625 196.473L150.254 120.278L165.214 105.318L150.176 90.2799L9.84985 187.309Z" fill="#F2C955"/>
<path d="M103.631 175.943L146.637 218.95L127.371 238.216C123.741 241.846 117.529 240.019 116.439 235.005L103.631 175.943Z" fill="#DFC5ED"/>
<path d="M235.047 175.151L191.979 271.679C187.633 281.421 174.874 283.777 167.333 276.236L128.342 237.245L184.194 181.393C191.7 173.887 191.697 161.721 184.195 154.22L150.254 120.278L165.214 105.318L235.047 175.151Z" fill="#F2C955"/>
<path d="M139.785 181.271C141.425 179.631 141.425 176.973 139.786 175.333C138.146 173.694 135.488 173.694 133.848 175.333C132.208 176.973 132.208 179.632 133.848 181.271C135.487 182.911 138.146 182.911 139.785 181.271Z" fill="black"/>
<path d="M99.9122 221.144C101.552 219.505 101.552 216.846 99.9124 215.207C98.2728 213.567 95.6145 213.567 93.9748 215.207C92.3351 216.847 92.335 219.505 93.9746 221.145C95.6141 222.784 98.2725 222.784 99.9122 221.144Z" fill="black"/>
<path d="M342.735 415.048L415.048 342.735L282.916 210.604L210.604 282.916L342.735 415.048Z" fill="#71C3CC"/>
<path d="M342.731 415.044L280.308 477.467L271.609 468.768C257.275 454.433 248.071 435.765 245.437 415.668L230.649 302.961L342.735 415.048L342.731 415.044Z" fill="#81DFEF"/>
<path d="M200.735 157.013L164.199 120.477L177.002 107.674C185.435 99.2408 199.857 105.074 200.064 116.997L200.743 157.013L200.735 157.013Z" fill="#DFC5ED"/>
<path opacity="0.15" d="M235.046 175.151L214.074 270.563L199.139 255.628L235.046 175.151Z" fill="#605243"/>
<path opacity="0.05" d="M103.631 175.943L159.082 206.505L146.637 218.95L103.631 175.943Z" fill="#605243"/>
<path d="M22.9626 196.473C36.911 204.118 59.8136 210.719 80.815 189.718L150.254 120.278L22.9626 196.473Z" fill="#CCA84E"/>
</g>
<defs>
<clipPath id="clip0_69_3">
<rect y="197.159" width="278.824" height="396.416" rx="100" transform="rotate(-45 0 197.159)" fill="white"/>
</clipPath>
</defs>
</svg>
