<svg width="961" height="236" viewBox="0 0 961 236" fill="none" xmlns="http://www.w3.org/2000/svg">
<path d="M16.31 67.76H31.99V77H4.34V27.86H16.31V67.76ZM36.9294 27.86H49.1794L41.3394 46.62H33.2894L36.9294 27.86ZM50.3311 57.4C50.3311 53.3867 51.0778 49.8633 52.5711 46.83C54.1111 43.7967 56.1878 41.4633 58.8011 39.83C61.4144 38.1967 64.3311 37.38 67.5511 37.38C70.3044 37.38 72.7078 37.94 74.7611 39.06C76.8611 40.18 78.4711 41.65 79.5911 43.47V37.94H91.5611V77H79.5911V71.47C78.4244 73.29 76.7911 74.76 74.6911 75.88C72.6378 77 70.2344 77.56 67.4811 77.56C64.3078 77.56 61.4144 76.7433 58.8011 75.11C56.1878 73.43 54.1111 71.0733 52.5711 68.04C51.0778 64.96 50.3311 61.4133 50.3311 57.4ZM79.5911 57.47C79.5911 54.4833 78.7511 52.1267 77.0711 50.4C75.4378 48.6733 73.4311 47.81 71.0511 47.81C68.6711 47.81 66.6411 48.6733 64.9611 50.4C63.3278 52.08 62.5111 54.4133 62.5111 57.4C62.5111 60.3867 63.3278 62.7667 64.9611 64.54C66.6411 66.2667 68.6711 67.13 71.0511 67.13C73.4311 67.13 75.4378 66.2667 77.0711 64.54C78.7511 62.8133 79.5911 60.4567 79.5911 57.47ZM94.3409 57.47C94.3409 53.41 95.1575 49.8633 96.7909 46.83C98.4709 43.7967 100.781 41.4633 103.721 39.83C106.708 38.1967 110.114 37.38 113.941 37.38C118.841 37.38 122.924 38.6633 126.191 41.23C129.504 43.7967 131.674 47.4133 132.701 52.08H119.961C118.888 49.0933 116.811 47.6 113.731 47.6C111.538 47.6 109.788 48.4633 108.481 50.19C107.174 51.87 106.521 54.2967 106.521 57.47C106.521 60.6433 107.174 63.0933 108.481 64.82C109.788 66.5 111.538 67.34 113.731 67.34C116.811 67.34 118.888 65.8467 119.961 62.86H132.701C131.674 67.4333 129.504 71.0267 126.191 73.64C122.878 76.2533 118.794 77.56 113.941 77.56C110.114 77.56 106.708 76.7433 103.721 75.11C100.781 73.4767 98.4709 71.1433 96.7909 68.11C95.1575 65.0767 94.3409 61.53 94.3409 57.47ZM133.224 57.47C133.224 53.41 134.04 49.8633 135.674 46.83C137.354 43.7967 139.664 41.4633 142.604 39.83C145.59 38.1967 148.997 37.38 152.824 37.38C157.724 37.38 161.807 38.6633 165.074 41.23C168.387 43.7967 170.557 47.4133 171.584 52.08H158.844C157.77 49.0933 155.694 47.6 152.614 47.6C150.42 47.6 148.67 48.4633 147.364 50.19C146.057 51.87 145.404 54.2967 145.404 57.47C145.404 60.6433 146.057 63.0933 147.364 64.82C148.67 66.5 150.42 67.34 152.614 67.34C155.694 67.34 157.77 65.8467 158.844 62.86H171.584C170.557 67.4333 168.387 71.0267 165.074 73.64C161.76 76.2533 157.677 77.56 152.824 77.56C148.997 77.56 145.59 76.7433 142.604 75.11C139.664 73.4767 137.354 71.1433 135.674 68.11C134.04 65.0767 133.224 61.53 133.224 57.47ZM188.766 77.56C185.406 77.56 182.42 76.8833 179.806 75.53C177.193 74.1767 175.163 72.2633 173.716 69.79C172.316 67.3167 171.616 64.4467 171.616 61.18C171.616 56.7467 172.666 52.71 174.766 49.07C176.866 45.43 179.76 42.5833 183.446 40.53C187.133 38.43 191.24 37.38 195.766 37.38C199.126 37.38 202.113 38.08 204.726 39.48C207.386 40.8333 209.44 42.7467 210.886 45.22C212.333 47.6933 213.056 50.5633 213.056 53.83C213.056 58.31 211.983 62.37 209.836 66.01C207.736 69.6033 204.82 72.4267 201.086 74.48C197.4 76.5333 193.293 77.56 188.766 77.56ZM190.446 67.27C192.406 67.27 194.156 66.6867 195.696 65.52C197.283 64.3067 198.496 62.7667 199.336 60.9C200.223 58.9867 200.666 57.0033 200.666 54.95C200.666 52.6167 200.036 50.82 198.776 49.56C197.516 48.3 195.93 47.67 194.016 47.67C192.01 47.67 190.236 48.2767 188.696 49.49C187.203 50.6567 186.036 52.1967 185.196 54.11C184.356 56.0233 183.936 58.03 183.936 60.13C183.936 62.4167 184.543 64.19 185.756 65.45C186.97 66.6633 188.533 67.27 190.446 67.27ZM265.397 37.52C270.25 37.52 274.1 38.99 276.947 41.93C279.84 44.87 281.287 48.9533 281.287 54.18V77H269.387V55.79C269.387 53.27 268.71 51.3333 267.357 49.98C266.05 48.58 264.23 47.88 261.897 47.88C259.563 47.88 257.72 48.58 256.367 49.98C255.06 51.3333 254.407 53.27 254.407 55.79V77H242.507V55.79C242.507 53.27 241.83 51.3333 240.477 49.98C239.17 48.58 237.35 47.88 235.017 47.88C232.683 47.88 230.84 48.58 229.487 49.98C228.18 51.3333 227.527 53.27 227.527 55.79V77H215.557V37.94H227.527V42.84C228.74 41.2067 230.327 39.9233 232.287 38.99C234.247 38.01 236.463 37.52 238.937 37.52C241.877 37.52 244.49 38.15 246.777 39.41C249.11 40.67 250.93 42.4667 252.237 44.8C253.59 42.6533 255.433 40.9033 257.767 39.55C260.1 38.1967 262.643 37.52 265.397 37.52ZM298.128 43.47C299.295 41.65 300.905 40.18 302.958 39.06C305.012 37.94 307.415 37.38 310.168 37.38C313.388 37.38 316.305 38.1967 318.918 39.83C321.532 41.4633 323.585 43.7967 325.078 46.83C326.618 49.8633 327.388 53.3867 327.388 57.4C327.388 61.4133 326.618 64.96 325.078 68.04C323.585 71.0733 321.532 73.43 318.918 75.11C316.305 76.7433 313.388 77.56 310.168 77.56C307.462 77.56 305.058 77 302.958 75.88C300.905 74.76 299.295 73.3133 298.128 71.54V95.62H286.158V37.94H298.128V43.47ZM315.208 57.4C315.208 54.4133 314.368 52.08 312.688 50.4C311.055 48.6733 309.025 47.81 306.598 47.81C304.218 47.81 302.188 48.6733 300.508 50.4C298.875 52.1267 298.058 54.4833 298.058 57.47C298.058 60.4567 298.875 62.8133 300.508 64.54C302.188 66.2667 304.218 67.13 306.598 67.13C308.978 67.13 311.008 66.2667 312.688 64.54C314.368 62.7667 315.208 60.3867 315.208 57.4ZM327.788 57.4C327.788 53.3867 328.535 49.8633 330.028 46.83C331.568 43.7967 333.645 41.4633 336.258 39.83C338.871 38.1967 341.788 37.38 345.008 37.38C347.761 37.38 350.165 37.94 352.218 39.06C354.318 40.18 355.928 41.65 357.048 43.47V37.94H369.018V77H357.048V71.47C355.881 73.29 354.248 74.76 352.148 75.88C350.095 77 347.691 77.56 344.938 77.56C341.765 77.56 338.871 76.7433 336.258 75.11C333.645 73.43 331.568 71.0733 330.028 68.04C328.535 64.96 327.788 61.4133 327.788 57.4ZM357.048 57.47C357.048 54.4833 356.208 52.1267 354.528 50.4C352.895 48.6733 350.888 47.81 348.508 47.81C346.128 47.81 344.098 48.6733 342.418 50.4C340.785 52.08 339.968 54.4133 339.968 57.4C339.968 60.3867 340.785 62.7667 342.418 64.54C344.098 66.2667 346.128 67.13 348.508 67.13C350.888 67.13 352.895 66.2667 354.528 64.54C356.208 62.8133 357.048 60.4567 357.048 57.47ZM389.018 37.38C391.771 37.38 394.175 37.94 396.228 39.06C398.328 40.18 399.938 41.65 401.058 43.47V37.94H413.028V76.93C413.028 80.5233 412.305 83.7667 410.858 86.66C409.458 89.6 407.288 91.9333 404.348 93.66C401.455 95.3867 397.838 96.25 393.498 96.25C387.711 96.25 383.021 94.8733 379.428 92.12C375.835 89.4133 373.781 85.7267 373.268 81.06H385.098C385.471 82.5533 386.358 83.72 387.758 84.56C389.158 85.4467 390.885 85.89 392.938 85.89C395.411 85.89 397.371 85.1667 398.818 83.72C400.311 82.32 401.058 80.0567 401.058 76.93V71.4C399.891 73.22 398.281 74.7133 396.228 75.88C394.175 77 391.771 77.56 389.018 77.56C385.798 77.56 382.881 76.7433 380.268 75.11C377.655 73.43 375.578 71.0733 374.038 68.04C372.545 64.96 371.798 61.4133 371.798 57.4C371.798 53.3867 372.545 49.8633 374.038 46.83C375.578 43.7967 377.655 41.4633 380.268 39.83C382.881 38.1967 385.798 37.38 389.018 37.38ZM401.058 57.47C401.058 54.4833 400.218 52.1267 398.538 50.4C396.905 48.6733 394.898 47.81 392.518 47.81C390.138 47.81 388.108 48.6733 386.428 50.4C384.795 52.08 383.978 54.4133 383.978 57.4C383.978 60.3867 384.795 62.7667 386.428 64.54C388.108 66.2667 390.138 67.13 392.518 67.13C394.898 67.13 396.905 66.2667 398.538 64.54C400.218 62.8133 401.058 60.4567 401.058 57.47ZM441.988 37.52C446.561 37.52 450.201 39.0133 452.908 42C455.661 44.94 457.038 49 457.038 54.18V77H445.138V55.79C445.138 53.1767 444.461 51.1467 443.108 49.7C441.754 48.2533 439.934 47.53 437.648 47.53C435.361 47.53 433.541 48.2533 432.188 49.7C430.834 51.1467 430.158 53.1767 430.158 55.79V77H418.188V37.94H430.158V43.12C431.371 41.3933 433.004 40.04 435.058 39.06C437.111 38.0333 439.421 37.52 441.988 37.52ZM498.676 56.84C498.676 57.96 498.606 59.1267 498.466 60.34H471.376C471.562 62.7667 472.332 64.6333 473.686 65.94C475.086 67.2 476.789 67.83 478.796 67.83C481.782 67.83 483.859 66.57 485.026 64.05H497.766C497.112 66.6167 495.922 68.9267 494.196 70.98C492.516 73.0333 490.392 74.6433 487.826 75.81C485.259 76.9767 482.389 77.56 479.216 77.56C475.389 77.56 471.982 76.7433 468.996 75.11C466.009 73.4767 463.676 71.1433 461.996 68.11C460.316 65.0767 459.476 61.53 459.476 57.47C459.476 53.41 460.292 49.8633 461.926 46.83C463.606 43.7967 465.939 41.4633 468.926 39.83C471.912 38.1967 475.342 37.38 479.216 37.38C482.996 37.38 486.356 38.1733 489.296 39.76C492.236 41.3467 494.522 43.61 496.156 46.55C497.836 49.49 498.676 52.92 498.676 56.84ZM486.426 53.69C486.426 51.6367 485.726 50.0033 484.326 48.79C482.926 47.5767 481.176 46.97 479.076 46.97C477.069 46.97 475.366 47.5533 473.966 48.72C472.612 49.8867 471.772 51.5433 471.446 53.69H486.426ZM551.33 37.52C556.184 37.52 560.034 38.99 562.88 41.93C565.774 44.87 567.22 48.9533 567.22 54.18V77H555.32V55.79C555.32 53.27 554.644 51.3333 553.29 49.98C551.984 48.58 550.164 47.88 547.83 47.88C545.497 47.88 543.654 48.58 542.3 49.98C540.994 51.3333 540.34 53.27 540.34 55.79V77H528.44V55.79C528.44 53.27 527.764 51.3333 526.41 49.98C525.104 48.58 523.284 47.88 520.95 47.88C518.617 47.88 516.774 48.58 515.42 49.98C514.114 51.3333 513.46 53.27 513.46 55.79V77H501.49V37.94H513.46V42.84C514.674 41.2067 516.26 39.9233 518.22 38.99C520.18 38.01 522.397 37.52 524.87 37.52C527.81 37.52 530.424 38.15 532.71 39.41C535.044 40.67 536.864 42.4667 538.17 44.8C539.524 42.6533 541.367 40.9033 543.7 39.55C546.034 38.1967 548.577 37.52 551.33 37.52ZM608.912 56.84C608.912 57.96 608.842 59.1267 608.702 60.34H581.612C581.799 62.7667 582.569 64.6333 583.922 65.94C585.322 67.2 587.025 67.83 589.032 67.83C592.019 67.83 594.095 66.57 595.262 64.05H608.002C607.349 66.6167 606.159 68.9267 604.432 70.98C602.752 73.0333 600.629 74.6433 598.062 75.81C595.495 76.9767 592.625 77.56 589.452 77.56C585.625 77.56 582.219 76.7433 579.232 75.11C576.245 73.4767 573.912 71.1433 572.232 68.11C570.552 65.0767 569.712 61.53 569.712 57.47C569.712 53.41 570.529 49.8633 572.162 46.83C573.842 43.7967 576.175 41.4633 579.162 39.83C582.149 38.1967 585.579 37.38 589.452 37.38C593.232 37.38 596.592 38.1733 599.532 39.76C602.472 41.3467 604.759 43.61 606.392 46.55C608.072 49.49 608.912 52.92 608.912 56.84ZM596.662 53.69C596.662 51.6367 595.962 50.0033 594.562 48.79C593.162 47.5767 591.412 46.97 589.312 46.97C587.305 46.97 585.602 47.5533 584.202 48.72C582.849 49.8867 582.009 51.5433 581.682 53.69H596.662ZM635.527 37.52C640.1 37.52 643.74 39.0133 646.447 42C649.2 44.94 650.577 49 650.577 54.18V77H638.677V55.79C638.677 53.1767 638 51.1467 636.647 49.7C635.293 48.2533 633.473 47.53 631.187 47.53C628.9 47.53 627.08 48.2533 625.727 49.7C624.373 51.1467 623.697 53.1767 623.697 55.79V77H611.727V37.94H623.697V43.12C624.91 41.3933 626.543 40.04 628.597 39.06C630.65 38.0333 632.96 37.52 635.527 37.52ZM677.165 66.85V77H671.075C666.735 77 663.351 75.95 660.925 73.85C658.498 71.7033 657.285 68.2267 657.285 63.42V47.88H652.525V37.94H657.285V28.42H669.255V37.94H677.095V47.88H669.255V63.56C669.255 64.7267 669.535 65.5667 670.095 66.08C670.655 66.5933 671.588 66.85 672.895 66.85H677.165Z" fill="black"/>
<path d="M356.31 110.47C357.477 108.65 359.087 107.18 361.14 106.06C363.193 104.94 365.597 104.38 368.35 104.38C371.57 104.38 374.487 105.197 377.1 106.83C379.713 108.463 381.767 110.797 383.26 113.83C384.8 116.863 385.57 120.387 385.57 124.4C385.57 128.413 384.8 131.96 383.26 135.04C381.767 138.073 379.713 140.43 377.1 142.11C374.487 143.743 371.57 144.56 368.35 144.56C365.643 144.56 363.24 144 361.14 142.88C359.087 141.76 357.477 140.313 356.31 138.54V162.62H344.34V104.94H356.31V110.47ZM373.39 124.4C373.39 121.413 372.55 119.08 370.87 117.4C369.237 115.673 367.207 114.81 364.78 114.81C362.4 114.81 360.37 115.673 358.69 117.4C357.057 119.127 356.24 121.483 356.24 124.47C356.24 127.457 357.057 129.813 358.69 131.54C360.37 133.267 362.4 134.13 364.78 134.13C367.16 134.13 369.19 133.267 370.87 131.54C372.55 129.767 373.39 127.387 373.39 124.4ZM406.13 144.56C402.303 144.56 398.85 143.743 395.77 142.11C392.736 140.477 390.333 138.143 388.56 135.11C386.833 132.077 385.97 128.53 385.97 124.47C385.97 120.457 386.856 116.933 388.63 113.9C390.403 110.82 392.83 108.463 395.91 106.83C398.99 105.197 402.443 104.38 406.27 104.38C410.096 104.38 413.55 105.197 416.63 106.83C419.71 108.463 422.136 110.82 423.91 113.9C425.683 116.933 426.57 120.457 426.57 124.47C426.57 128.483 425.66 132.03 423.84 135.11C422.066 138.143 419.616 140.477 416.49 142.11C413.41 143.743 409.956 144.56 406.13 144.56ZM406.13 134.2C408.416 134.2 410.353 133.36 411.94 131.68C413.573 130 414.39 127.597 414.39 124.47C414.39 121.343 413.596 118.94 412.01 117.26C410.47 115.58 408.556 114.74 406.27 114.74C403.936 114.74 402 115.58 400.46 117.26C398.92 118.893 398.15 121.297 398.15 124.47C398.15 127.597 398.896 130 400.39 131.68C401.93 133.36 403.843 134.2 406.13 134.2ZM467.99 104.94V144H456.02V138.68C454.807 140.407 453.15 141.807 451.05 142.88C448.997 143.907 446.71 144.42 444.19 144.42C441.203 144.42 438.567 143.767 436.28 142.46C433.993 141.107 432.22 139.17 430.96 136.65C429.7 134.13 429.07 131.167 429.07 127.76V104.94H440.97V126.15C440.97 128.763 441.647 130.793 443 132.24C444.353 133.687 446.173 134.41 448.46 134.41C450.793 134.41 452.637 133.687 453.99 132.24C455.343 130.793 456.02 128.763 456.02 126.15V104.94H467.99ZM485.058 111.45C486.458 109.303 488.208 107.623 490.308 106.41C492.408 105.15 494.741 104.52 497.308 104.52V117.19H494.018C491.031 117.19 488.791 117.843 487.298 119.15C485.805 120.41 485.058 122.65 485.058 125.87V144H473.088V104.94H485.058V111.45ZM532.633 133.85V144H526.543C522.203 144 518.82 142.95 516.393 140.85C513.967 138.703 512.753 135.227 512.753 130.42V114.88H507.993V104.94H512.753V95.42H524.723V104.94H532.563V114.88H524.723V130.56C524.723 131.727 525.003 132.567 525.563 133.08C526.123 133.593 527.057 133.85 528.363 133.85H532.633ZM553.581 144.56C549.754 144.56 546.301 143.743 543.221 142.11C540.188 140.477 537.784 138.143 536.011 135.11C534.284 132.077 533.421 128.53 533.421 124.47C533.421 120.457 534.308 116.933 536.081 113.9C537.854 110.82 540.281 108.463 543.361 106.83C546.441 105.197 549.894 104.38 553.721 104.38C557.548 104.38 561.001 105.197 564.081 106.83C567.161 108.463 569.588 110.82 571.361 113.9C573.134 116.933 574.021 120.457 574.021 124.47C574.021 128.483 573.111 132.03 571.291 135.11C569.518 138.143 567.068 140.477 563.941 142.11C560.861 143.743 557.408 144.56 553.581 144.56ZM553.581 134.2C555.868 134.2 557.804 133.36 559.391 131.68C561.024 130 561.841 127.597 561.841 124.47C561.841 121.343 561.048 118.94 559.461 117.26C557.921 115.58 556.008 114.74 553.721 114.74C551.388 114.74 549.451 115.58 547.911 117.26C546.371 118.893 545.601 121.297 545.601 124.47C545.601 127.597 546.348 130 547.841 131.68C549.381 133.36 551.294 134.2 553.581 134.2ZM615.441 104.94V144H603.471V138.68C602.258 140.407 600.601 141.807 598.501 142.88C596.448 143.907 594.161 144.42 591.641 144.42C588.655 144.42 586.018 143.767 583.731 142.46C581.445 141.107 579.671 139.17 578.411 136.65C577.151 134.13 576.521 131.167 576.521 127.76V104.94H588.421V126.15C588.421 128.763 589.098 130.793 590.451 132.24C591.805 133.687 593.625 134.41 595.911 134.41C598.245 134.41 600.088 133.687 601.441 132.24C602.795 130.793 603.471 128.763 603.471 126.15V104.94H615.441ZM636.429 144.56C633.023 144.56 629.989 143.977 627.329 142.81C624.669 141.643 622.569 140.057 621.029 138.05C619.489 135.997 618.626 133.71 618.439 131.19H630.269C630.409 132.543 631.039 133.64 632.159 134.48C633.279 135.32 634.656 135.74 636.289 135.74C637.783 135.74 638.926 135.46 639.719 134.9C640.559 134.293 640.979 133.523 640.979 132.59C640.979 131.47 640.396 130.653 639.229 130.14C638.063 129.58 636.173 128.973 633.559 128.32C630.759 127.667 628.426 126.99 626.559 126.29C624.693 125.543 623.083 124.4 621.729 122.86C620.376 121.273 619.699 119.15 619.699 116.49C619.699 114.25 620.306 112.22 621.519 110.4C622.779 108.533 624.599 107.063 626.979 105.99C629.406 104.917 632.276 104.38 635.589 104.38C640.489 104.38 644.339 105.593 647.139 108.02C649.986 110.447 651.619 113.667 652.039 117.68H640.979C640.793 116.327 640.186 115.253 639.159 114.46C638.179 113.667 636.873 113.27 635.239 113.27C633.839 113.27 632.766 113.55 632.019 114.11C631.273 114.623 630.899 115.347 630.899 116.28C630.899 117.4 631.483 118.24 632.649 118.8C633.863 119.36 635.729 119.92 638.249 120.48C641.143 121.227 643.499 121.973 645.319 122.72C647.139 123.42 648.726 124.587 650.079 126.22C651.479 127.807 652.203 129.953 652.249 132.66C652.249 134.947 651.596 137 650.289 138.82C649.029 140.593 647.186 141.993 644.759 143.02C642.379 144.047 639.603 144.56 636.429 144.56Z" fill="black"/>
<path d="M526.16 187.84C526.16 188.96 526.09 190.127 525.95 191.34H498.86C499.047 193.767 499.817 195.633 501.17 196.94C502.57 198.2 504.273 198.83 506.28 198.83C509.267 198.83 511.343 197.57 512.51 195.05H525.25C524.597 197.617 523.407 199.927 521.68 201.98C520 204.033 517.877 205.643 515.31 206.81C512.743 207.977 509.873 208.56 506.7 208.56C502.873 208.56 499.467 207.743 496.48 206.11C493.493 204.477 491.16 202.143 489.48 199.11C487.8 196.077 486.96 192.53 486.96 188.47C486.96 184.41 487.777 180.863 489.41 177.83C491.09 174.797 493.423 172.463 496.41 170.83C499.397 169.197 502.827 168.38 506.7 168.38C510.48 168.38 513.84 169.173 516.78 170.76C519.72 172.347 522.007 174.61 523.64 177.55C525.32 180.49 526.16 183.92 526.16 187.84ZM513.91 184.69C513.91 182.637 513.21 181.003 511.81 179.79C510.41 178.577 508.66 177.97 506.56 177.97C504.553 177.97 502.85 178.553 501.45 179.72C500.097 180.887 499.257 182.543 498.93 184.69H513.91ZM552.775 168.52C557.348 168.52 560.988 170.013 563.695 173C566.448 175.94 567.825 180 567.825 185.18V208H555.925V186.79C555.925 184.177 555.248 182.147 553.895 180.7C552.541 179.253 550.721 178.53 548.435 178.53C546.148 178.53 544.328 179.253 542.975 180.7C541.621 182.147 540.945 184.177 540.945 186.79V208H528.975V168.94H540.945V174.12C542.158 172.393 543.791 171.04 545.845 170.06C547.898 169.033 550.208 168.52 552.775 168.52ZM605.747 197.85V208H599.657C595.317 208 591.933 206.95 589.507 204.85C587.08 202.703 585.867 199.227 585.867 194.42V178.88H581.107V168.94H585.867V159.42H597.837V168.94H605.677V178.88H597.837V194.56C597.837 195.727 598.117 196.567 598.677 197.08C599.237 197.593 600.17 197.85 601.477 197.85H605.747ZM623.194 208.56C619.834 208.56 616.848 207.883 614.234 206.53C611.621 205.177 609.591 203.263 608.144 200.79C606.744 198.317 606.044 195.447 606.044 192.18C606.044 187.747 607.094 183.71 609.194 180.07C611.294 176.43 614.188 173.583 617.874 171.53C621.561 169.43 625.668 168.38 630.194 168.38C633.554 168.38 636.541 169.08 639.154 170.48C641.814 171.833 643.868 173.747 645.314 176.22C646.761 178.693 647.484 181.563 647.484 184.83C647.484 189.31 646.411 193.37 644.264 197.01C642.164 200.603 639.248 203.427 635.514 205.48C631.828 207.533 627.721 208.56 623.194 208.56ZM624.874 198.27C626.834 198.27 628.584 197.687 630.124 196.52C631.711 195.307 632.924 193.767 633.764 191.9C634.651 189.987 635.094 188.003 635.094 185.95C635.094 183.617 634.464 181.82 633.204 180.56C631.944 179.3 630.358 178.67 628.444 178.67C626.438 178.67 624.664 179.277 623.124 180.49C621.631 181.657 620.464 183.197 619.624 185.11C618.784 187.023 618.364 189.03 618.364 191.13C618.364 193.417 618.971 195.19 620.184 196.45C621.398 197.663 622.961 198.27 624.874 198.27ZM688.555 168.94V208H676.585V202.68C675.371 204.407 673.715 205.807 671.615 206.88C669.561 207.907 667.275 208.42 664.755 208.42C661.768 208.42 659.131 207.767 656.845 206.46C654.558 205.107 652.785 203.17 651.525 200.65C650.265 198.13 649.635 195.167 649.635 191.76V168.94H661.535V190.15C661.535 192.763 662.211 194.793 663.565 196.24C664.918 197.687 666.738 198.41 669.025 198.41C671.358 198.41 673.201 197.687 674.555 196.24C675.908 194.793 676.585 192.763 676.585 190.15V168.94H688.555ZM715.423 197.85V208H709.333C704.993 208 701.609 206.95 699.183 204.85C696.756 202.703 695.543 199.227 695.543 194.42V178.88H690.783V168.94H695.543V159.42H707.513V168.94H715.353V178.88H707.513V194.56C707.513 195.727 707.793 196.567 708.353 197.08C708.913 197.593 709.846 197.85 711.153 197.85H715.423ZM751.694 197.85V208H745.604C741.264 208 737.881 206.95 735.454 204.85C733.027 202.703 731.814 199.227 731.814 194.42V178.88H727.054V168.94H731.814V159.42H743.784V168.94H751.624V178.88H743.784V194.56C743.784 195.727 744.064 196.567 744.624 197.08C745.184 197.593 746.117 197.85 747.424 197.85H751.694ZM791.681 187.84C791.681 188.96 791.611 190.127 791.471 191.34H764.381C764.568 193.767 765.338 195.633 766.691 196.94C768.091 198.2 769.795 198.83 771.801 198.83C774.788 198.83 776.865 197.57 778.031 195.05H790.771C790.118 197.617 788.928 199.927 787.201 201.98C785.521 204.033 783.398 205.643 780.831 206.81C778.265 207.977 775.395 208.56 772.221 208.56C768.395 208.56 764.988 207.743 762.001 206.11C759.015 204.477 756.681 202.143 755.001 199.11C753.321 196.077 752.481 192.53 752.481 188.47C752.481 184.41 753.298 180.863 754.931 177.83C756.611 174.797 758.945 172.463 761.931 170.83C764.918 169.197 768.348 168.38 772.221 168.38C776.001 168.38 779.361 169.173 782.301 170.76C785.241 172.347 787.528 174.61 789.161 177.55C790.841 180.49 791.681 183.92 791.681 187.84ZM779.431 184.69C779.431 182.637 778.731 181.003 777.331 179.79C775.931 178.577 774.181 177.97 772.081 177.97C770.075 177.97 768.371 178.553 766.971 179.72C765.618 180.887 764.778 182.543 764.451 184.69H779.431ZM844.336 168.52C849.19 168.52 853.04 169.99 855.886 172.93C858.78 175.87 860.226 179.953 860.226 185.18V208H848.326V186.79C848.326 184.27 847.65 182.333 846.296 180.98C844.99 179.58 843.17 178.88 840.836 178.88C838.503 178.88 836.66 179.58 835.306 180.98C834 182.333 833.346 184.27 833.346 186.79V208H821.446V186.79C821.446 184.27 820.77 182.333 819.416 180.98C818.11 179.58 816.29 178.88 813.956 178.88C811.623 178.88 809.78 179.58 808.426 180.98C807.12 182.333 806.466 184.27 806.466 186.79V208H794.496V168.94H806.466V173.84C807.68 172.207 809.266 170.923 811.226 169.99C813.186 169.01 815.403 168.52 817.876 168.52C820.816 168.52 823.43 169.15 825.716 170.41C828.05 171.67 829.87 173.467 831.176 175.8C832.53 173.653 834.373 171.903 836.706 170.55C839.04 169.197 841.583 168.52 844.336 168.52ZM877.068 174.47C878.234 172.65 879.844 171.18 881.898 170.06C883.951 168.94 886.354 168.38 889.108 168.38C892.328 168.38 895.244 169.197 897.858 170.83C900.471 172.463 902.524 174.797 904.018 177.83C905.558 180.863 906.328 184.387 906.328 188.4C906.328 192.413 905.558 195.96 904.018 199.04C902.524 202.073 900.471 204.43 897.858 206.11C895.244 207.743 892.328 208.56 889.108 208.56C886.401 208.56 883.998 208 881.898 206.88C879.844 205.76 878.234 204.313 877.068 202.54V226.62H865.098V168.94H877.068V174.47ZM894.148 188.4C894.148 185.413 893.308 183.08 891.628 181.4C889.994 179.673 887.964 178.81 885.538 178.81C883.158 178.81 881.128 179.673 879.448 181.4C877.814 183.127 876.998 185.483 876.998 188.47C876.998 191.457 877.814 193.813 879.448 195.54C881.128 197.267 883.158 198.13 885.538 198.13C887.918 198.13 889.948 197.267 891.628 195.54C893.308 193.767 894.148 191.387 894.148 188.4ZM924.998 208.56C921.591 208.56 918.558 207.977 915.898 206.81C913.238 205.643 911.138 204.057 909.598 202.05C908.058 199.997 907.194 197.71 907.008 195.19H918.838C918.978 196.543 919.608 197.64 920.728 198.48C921.848 199.32 923.224 199.74 924.858 199.74C926.351 199.74 927.494 199.46 928.288 198.9C929.128 198.293 929.548 197.523 929.548 196.59C929.548 195.47 928.964 194.653 927.798 194.14C926.631 193.58 924.741 192.973 922.128 192.32C919.328 191.667 916.994 190.99 915.128 190.29C913.261 189.543 911.651 188.4 910.298 186.86C908.944 185.273 908.268 183.15 908.268 180.49C908.268 178.25 908.874 176.22 910.088 174.4C911.348 172.533 913.168 171.063 915.548 169.99C917.974 168.917 920.844 168.38 924.158 168.38C929.058 168.38 932.908 169.593 935.708 172.02C938.554 174.447 940.188 177.667 940.608 181.68H929.548C929.361 180.327 928.754 179.253 927.728 178.46C926.748 177.667 925.441 177.27 923.808 177.27C922.408 177.27 921.334 177.55 920.588 178.11C919.841 178.623 919.468 179.347 919.468 180.28C919.468 181.4 920.051 182.24 921.218 182.8C922.431 183.36 924.298 183.92 926.818 184.48C929.711 185.227 932.068 185.973 933.888 186.72C935.708 187.42 937.294 188.587 938.648 190.22C940.048 191.807 940.771 193.953 940.818 196.66C940.818 198.947 940.164 201 938.858 202.82C937.598 204.593 935.754 205.993 933.328 207.02C930.948 208.047 928.171 208.56 924.998 208.56ZM950.241 208.56C948.141 208.56 946.414 207.953 945.061 206.74C943.754 205.48 943.101 203.94 943.101 202.12C943.101 200.253 943.754 198.69 945.061 197.43C946.414 196.17 948.141 195.54 950.241 195.54C952.294 195.54 953.974 196.17 955.281 197.43C956.634 198.69 957.311 200.253 957.311 202.12C957.311 203.94 956.634 205.48 955.281 206.74C953.974 207.953 952.294 208.56 950.241 208.56Z" fill="black"/>
<g clip-path="url(#clip0_38_60)">
<path d="M714.155 28.1402L703.836 38.3563V28.1402H692V76.9141H703.836V66.6483L714.21 76.9141L714.296 77L722.67 68.715L712.218 58.3633H727V46.6413H712.218L722.67 36.2895L714.438 28.1402L714.296 28L714.155 28.1402Z" fill="#81F281"/>
</g>
<defs>
<clipPath id="clip0_38_60">
<rect width="35" height="49" fill="white" transform="translate(692 28)"/>
</clipPath>
</defs>
</svg>
