<svg width="208" height="563" viewBox="0 0 208 563" fill="none" xmlns="http://www.w3.org/2000/svg">
<path d="M151.691 369.987C206.757 278.736 61.2278 180.701 -18.42 143.09C-118.492 195.715 -305.714 302.386 -254.023 308.068C-189.408 315.17 -178.919 433.824 -177.107 448.755C-175.296 463.687 -95.0108 534.483 -33.7673 432.779C27.4762 331.075 82.8586 484.051 151.691 369.987Z" fill="#81DFEF"/>
<g clip-path="url(#clip0_69_2)">
<path d="M11.9842 117.893C6.95074 124.064 5.39904 131.937 7.08397 139.135C11.0942 139.241 15.0983 140.329 18.7147 142.429C19.8444 143.077 20.9276 143.824 21.9683 144.673C22.9185 145.448 23.7953 146.279 24.5977 147.16L49.3153 116.86C48.5129 115.979 47.6361 115.147 46.6859 114.372C42.3009 110.795 37.0526 108.973 31.8049 108.83C31.7403 108.826 31.6798 108.824 31.6159 108.827C27.3734 108.737 23.1288 109.741 19.3451 111.793C16.5949 113.283 14.0815 115.323 11.9842 117.893Z" fill="#A55D1B"/>
<path d="M-12.7368 148.198C-21.3474 158.753 -19.771 174.289 -9.21565 182.9C-8.26542 183.675 -7.2746 184.366 -6.25066 184.976L24.5977 147.16C23.7952 146.279 22.9185 145.448 21.9683 144.673C20.9275 143.824 19.8444 143.077 18.7147 142.429C15.0983 140.329 11.0941 139.241 7.08392 139.135C-0.298879 138.922 -7.70336 142.028 -12.7368 148.198Z" fill="#A55D1B"/>
<path d="M51.0239 225.244C52.1856 230.446 55.0419 235.318 59.4968 238.952C70.0562 247.566 85.5921 245.99 94.2027 235.434C99.2361 229.264 100.792 221.394 99.0995 214.197C97.5445 214.155 95.9818 213.962 94.4496 213.624L93.7885 214.434C83.225 227.383 65.7099 231.319 51.0239 225.244Z" fill="#A55D1B"/>
<path d="M40.1696 218.411L-4.07959 182.314L-27.5657 211.105L16.6836 247.201L40.1696 218.411Z" fill="#EDD8BE"/>
<path d="M-131.08 307.177L-58.147 366.672L30.274 258.281L-42.6589 198.786L-131.08 307.177Z" fill="#81F281"/>
<path d="M10.8784 282.057L15.76 330.166C18.6006 358.16 3.5588 380.706 -14.2261 402.508L-58.1462 366.68L10.8825 282.06L10.8784 282.057Z" fill="#81F281"/>
<path d="M33.6537 82.9145L145.665 174.288C170.896 143.359 166.276 97.8268 135.346 72.5958C104.417 47.3648 58.8848 51.9849 33.6537 82.9145Z" fill="#C6721E"/>
<path d="M59.6842 104.149L-4.07956 182.314L41.7657 219.713C44.6411 222.058 47.7633 223.9 51.0238 225.244C65.7099 231.319 83.2249 227.383 93.7884 214.434L134.18 164.919L59.6842 104.149Z" fill="#EDD8BE"/>
<path d="M134.18 164.919L119.17 183.319C120.703 183.658 122.261 183.847 123.816 183.889C131.207 184.101 138.608 181 143.641 174.83C144.004 174.385 144.346 173.932 144.67 173.476L134.18 164.919Z" fill="#A55D1B"/>
<path d="M119.17 183.319L94.4495 213.624C95.9817 213.962 97.5444 214.155 99.0994 214.197C106.493 214.405 113.89 211.3 118.924 205.13C122.095 201.243 123.884 196.68 124.349 192.038C124.626 189.304 124.445 186.553 123.816 183.889C122.261 183.847 120.703 183.658 119.17 183.319Z" fill="#A55D1B"/>
<path d="M33.6538 82.9145C26.5365 91.6393 21.7935 101.527 19.3451 111.793C23.1288 109.741 27.3734 108.737 31.6159 108.827C31.6798 108.824 31.7403 108.826 31.8049 108.83C37.0526 108.973 42.3009 110.795 46.6859 114.372C47.6361 115.147 48.5128 115.979 49.3153 116.86L59.6842 104.149L33.6538 82.9145Z" fill="#A55D1B"/>
<path d="M70.5664 194.141L85.8564 206.614C87.6334 208.063 90.2435 207.795 91.6898 206.022C93.6831 203.578 92.4828 199.893 89.4319 199.09L70.5664 194.141Z" fill="#81F281"/>
<path d="M70.5664 194.141L85.8564 206.614C87.6334 208.063 87.8946 210.674 86.4483 212.447C84.4551 214.891 80.6039 214.455 79.2039 211.628L70.5664 194.141Z" fill="#81F281"/>
<path d="M133.934 195.219C135.629 196.602 138.124 196.349 139.506 194.654C140.889 192.959 140.636 190.464 138.941 189.082C137.246 187.699 134.752 187.952 133.369 189.647C131.986 191.342 132.24 193.837 133.934 195.219Z" fill="black"/>
<path d="M97.7354 165.69C99.4302 167.072 101.925 166.819 103.307 165.124C104.69 163.429 104.437 160.935 102.742 159.552C101.047 158.17 98.5526 158.423 97.17 160.118C95.7875 161.812 96.0406 164.307 97.7354 165.69Z" fill="black"/>
<path d="M31.4758 133.698L55.5256 104.216L45.2253 95.8138C39.5733 91.2031 31.1042 95.2696 31.1731 102.567L31.4717 133.695L31.4758 133.698Z" fill="#EDD8BE"/>
<path opacity="0.15" d="M-4.07959 182.314L28.4249 232.808L40.1696 218.411L-4.07959 182.314Z" fill="#897D71"/>
<path opacity="0.15" d="M134.18 164.919L59.6842 104.149L53.7649 111.405L128.261 172.176L134.18 164.919Z" fill="#A55D1B"/>
</g>
<defs>
<clipPath id="clip0_69_2">
<rect width="207.482" height="350.183" fill="white" transform="translate(46.3544) rotate(39.206)"/>
</clipPath>
</defs>
</svg>
