<svg width="32" height="26" viewBox="0 0 32 26" fill="none" xmlns="http://www.w3.org/2000/svg">
<path d="M19.81 0.0300293C18.48 0.0300293 17.18 0.530024 16.18 1.40002C15.18 0.520024 13.88 0.0300293 12.55 0.0300293H0.630005V22.01H12.54C13.57 22.01 14.52 22.57 15.03 23.45L16.17 25.41L17.3 23.45C17.81 22.57 18.77 22.01 19.79 22.01H31.7V0.0300293H19.79H19.81ZM3.26001 2.65002H12.56C13.58 2.65002 14.53 3.21003 15.05 4.09003L16.19 6.05002L17.32 4.09003C17.83 3.21003 18.79 2.65002 19.81 2.65002H29.1V19.39H19.81C18.48 19.39 17.18 19.89 16.18 20.76C15.18 19.88 13.88 19.39 12.54 19.39H3.25001V2.65002H3.26001Z" fill="#E3C3EF"/>
</svg>
