<svg width="151" height="34" viewBox="0 0 151 34" fill="none" xmlns="http://www.w3.org/2000/svg">
<g clip-path="url(#clip0_5_9)">
<path d="M51.5277 30.3407C49.9269 29.6406 48.6616 28.6834 47.7347 27.4662C46.8078 26.2491 46.2857 24.8861 46.1738 23.3747H53.299C53.3842 24.1861 53.7625 24.8437 54.4364 25.3475C55.1103 25.8513 55.9387 26.1033 56.9242 26.1033C57.8245 26.1033 58.5197 25.9282 59.0098 25.5782C59.4999 25.2282 59.7476 24.7748 59.7476 24.2153C59.7476 23.5444 59.396 23.0485 58.6928 22.725C57.9896 22.4041 56.8523 22.0462 55.2781 21.6537C53.592 21.2613 52.1856 20.8503 51.0616 20.4154C49.9375 19.9831 48.968 19.2964 48.1529 18.3603C47.3378 17.4243 46.9303 16.1568 46.9303 14.5631C46.9303 13.2213 47.3032 11.9963 48.0464 10.8905C48.7895 9.78474 49.8869 8.91233 51.3333 8.26797C52.7796 7.62361 54.5003 7.30276 56.498 7.30276C59.4493 7.30276 61.7746 8.02932 63.474 9.4851C65.1734 10.9409 66.151 12.8713 66.404 15.2764H59.7423C59.6304 14.465 59.2708 13.8233 58.6662 13.346C58.0616 12.8713 57.2678 12.6327 56.2849 12.6327C55.4406 12.6327 54.796 12.7944 54.3458 13.1153C53.8957 13.4361 53.6719 13.879 53.6719 14.4385C53.6719 15.1093 54.0315 15.6132 54.748 15.9499C55.4645 16.2867 56.5806 16.6208 58.0988 16.9576C59.8409 17.4057 61.2606 17.8459 62.3553 18.2808C63.4501 18.7156 64.4143 19.413 65.2427 20.3783C66.0711 21.3435 66.4999 22.6375 66.5292 24.2603C66.5292 25.6313 66.143 26.8563 65.3705 27.9329C64.5981 29.0095 63.4873 29.8581 62.041 30.4732C60.592 31.0884 58.9139 31.396 57.0041 31.396C54.9531 31.396 53.1259 31.046 51.525 30.346L51.5277 30.3407Z" fill="black"/>
<path d="M68.495 12.9668C69.4912 11.1477 70.8842 9.75027 72.6689 8.76915C74.4535 7.79067 76.4965 7.30011 78.8032 7.30011C81.7545 7.30011 84.221 8.0691 86.2 9.60708C88.1818 11.1451 89.4816 13.3141 90.0996 16.1117H82.4284C81.7811 14.3218 80.5319 13.4255 78.6753 13.4255C77.3542 13.4255 76.2994 13.9373 75.5136 14.9582C74.7252 15.9791 74.3336 17.4402 74.3336 19.3441C74.3336 21.248 74.7278 22.7091 75.5136 23.73C76.2994 24.7509 77.3542 25.2627 78.6753 25.2627C80.5292 25.2627 81.7811 24.3664 82.4284 22.5765H90.0996C89.4816 25.3184 88.1738 27.4715 86.1787 29.0387C84.1837 30.6058 81.7252 31.3881 78.8005 31.3881C76.4965 31.3881 74.4508 30.9002 72.6662 29.919C70.8816 28.9406 69.4912 27.5405 68.4923 25.7214C67.4935 23.9024 66.9954 21.7757 66.9954 19.3414C66.9954 16.9072 67.4935 14.7805 68.4923 12.9615L68.495 12.9668Z" fill="black"/>
<path d="M95.6745 30.1736C94.1003 29.3622 92.8857 28.2167 92.028 26.7317C91.1703 25.2494 90.7415 23.5285 90.7415 21.5689C90.7415 18.9119 91.3727 16.4909 92.638 14.3085C93.9032 12.1262 95.6452 10.4132 97.864 9.1669C100.083 7.92326 102.557 7.30011 105.282 7.30011C107.306 7.30011 109.11 7.71377 110.7 8.53845C112.287 9.36313 113.518 10.5166 114.389 12.0016C115.26 13.4839 115.697 15.2048 115.697 17.1644C115.697 19.8506 115.058 22.2769 113.779 24.446C112.501 26.615 110.743 28.3148 108.51 29.5452C106.276 30.7755 103.796 31.3907 101.071 31.3907C99.0466 31.3907 97.2487 30.985 95.6745 30.1736ZM105.266 24.1516C106.206 23.4383 106.939 22.5155 107.458 21.3806C107.978 20.2483 108.239 19.0657 108.239 17.8353C108.239 16.4378 107.861 15.3586 107.101 14.6029C106.342 13.8471 105.386 13.4706 104.235 13.4706C103.026 13.4706 101.966 13.8259 101.052 14.5419C100.139 15.2552 99.4302 16.1859 98.9241 17.3315C98.418 18.4796 98.165 19.6809 98.165 20.9404C98.165 22.3113 98.5299 23.3694 99.2624 24.1092C99.9922 24.8517 100.935 25.2202 102.086 25.2202C103.236 25.2202 104.326 24.8649 105.269 24.149L105.266 24.1516Z" fill="black"/>
<path d="M124.002 0V31.054H116.794V0H124.002Z" fill="black"/>
<path d="M126.636 12.9668C127.55 11.1477 128.794 9.75027 130.368 8.76915C131.942 7.79067 133.698 7.30011 135.637 7.30011C137.294 7.30011 138.748 7.63687 140 8.30775C141.249 8.97863 142.213 9.86164 142.887 10.9515V7.63687H150.095V31.054H142.887V27.7394C142.184 28.8319 141.206 29.7122 139.957 30.3831C138.705 31.054 137.251 31.3907 135.594 31.3907C133.682 31.3907 131.94 30.8949 130.368 29.9005C128.794 28.9087 127.55 27.4954 126.636 25.6631C125.723 23.8308 125.267 21.7121 125.267 19.3043C125.267 16.8966 125.723 14.7858 126.636 12.9668ZM141.393 15.1067C140.394 14.0725 139.179 13.5528 137.746 13.5528C136.313 13.5528 135.096 14.0646 134.1 15.0855C133.101 16.1064 132.603 17.5118 132.603 19.3043C132.603 21.0969 133.101 22.5155 134.1 23.5629C135.096 24.613 136.313 25.1354 137.746 25.1354C139.179 25.1354 140.394 24.6183 141.393 23.5815C142.389 22.5473 142.89 21.134 142.89 19.3441C142.89 17.5542 142.389 16.1409 141.393 15.1067Z" fill="black"/>
<path d="M35.5806 7.30276V31.3907H22.3291C20.4566 31.3907 18.7252 32.3851 17.7903 34C16.8554 32.3851 15.124 31.3907 13.2515 31.3907H0V7.30276H13.2542C15.1267 7.30276 16.8554 8.29714 17.7903 9.90937C18.7252 8.29714 20.4566 7.30276 22.3264 7.30276H35.5806Z" fill="#DFC5ED"/>
</g>
<defs>
<clipPath id="clip0_5_9">
<rect width="150.098" height="34" fill="white"/>
</clipPath>
</defs>
</svg>
